<?xml version="1.0" encoding="utf-8"?>
<!-- Generator: Adobe Illustrator 27.8.1, SVG Export Plug-In . SVG Version: 6.00 Build 0)  -->
<svg version="1.1" id="Camada_1" xmlns="http://www.w3.org/2000/svg" xmlns:xlink="http://www.w3.org/1999/xlink" x="0px" y="0px"
	 viewBox="0 0 214.3 41.7" style="enable-background:new 0 0 214.3 41.7;" xml:space="preserve">
<style type="text/css">
	.st0{fill:#393D3B;}
	.st1{fill:#E96B24;}
</style>
<g>
	<g>
		<g>
			<g>
				<path class="st0" d="M70.5,16.6h-6.3c-0.5,0-1-0.4-1-1l0,0c0-0.5,0.4-1,1-1h6.3c0.5,0,1,0.4,1,1l0,0
					C71.5,16.2,71,16.6,70.5,16.6z"/>
				<path class="st0" d="M70.5,20.3h-6.3c-0.5,0-1-0.4-1-1l0,0c0-0.5,0.4-1,1-1h6.3c0.5,0,1,0.4,1,1l0,0
					C71.5,19.9,71,20.3,70.5,20.3z"/>
				<path class="st0" d="M70.5,24h-6.3c-0.5,0-1-0.4-1-1l0,0c0-0.5,0.4-1,1-1h6.3c0.5,0,1,0.4,1,1l0,0C71.5,23.6,71,24,70.5,24z"/>
			</g>
			<g>
				<path class="st0" d="M86.6,14.7V24h-1.8l-4.6-5.6V24h-2.1v-9.3h1.8l4.6,5.6v-5.6C84.5,14.7,86.6,14.7,86.6,14.7z"/>
				<path class="st0" d="M100,19.2h2V23c-1,0.8-2.4,1.2-3.7,1.2c-2.9,0-5.1-2-5.1-4.8s2.1-4.8,5.1-4.8c1.6,0,3,0.6,3.9,1.6l-1.4,1.3
					c-0.7-0.7-1.5-1-2.4-1c-1.8,0-3,1.2-3,3c0,1.7,1.2,3,3,3c0.6,0,1.1-0.1,1.7-0.4L100,19.2L100,19.2z"/>
				<path class="st0" d="M116.1,22.3V24h-7.2v-9.3h7v1.7H111v2h4.3v1.7H111v2.1h5.1V22.3z"/>
				<path class="st0" d="M124.7,16.5h-3v-1.7h8.1v1.7h-3V24h-2.1V16.5z"/>
				<path class="st1" d="M143.1,22.3V24h-7.2v-9.3h7v1.7H138v2h4.3v1.7H138v2.1h5.1V22.3z"/>
				<path class="st1" d="M149.2,19.4c0-2.8,2.1-4.8,5-4.8c1.6,0,2.9,0.6,3.8,1.6l-1.4,1.3c-0.6-0.7-1.4-1.1-2.3-1.1
					c-1.7,0-3,1.2-3,3s1.2,3,3,3c0.9,0,1.7-0.4,2.3-1.1l1.4,1.3c-0.9,1.1-2.2,1.7-3.8,1.7C151.4,24.2,149.2,22.2,149.2,19.4z"/>
				<path class="st1" d="M173,14.7V24h-1.8l-4.6-5.6V24h-2.1v-9.3h1.8l4.6,5.6v-5.6C170.9,14.7,173,14.7,173,14.7z"/>
				<path class="st1" d="M180.2,14.7h2.1V24h-2.1V14.7z"/>
				<path class="st1" d="M188.9,19.4c0-2.8,2.1-4.8,5-4.8c1.6,0,2.9,0.6,3.8,1.6l-1.4,1.3c-0.6-0.7-1.4-1.1-2.3-1.1
					c-1.7,0-3,1.2-3,3s1.2,3,3,3c0.9,0,1.7-0.4,2.3-1.1l1.4,1.3c-0.9,1.1-2.2,1.7-3.8,1.7C191,24.2,188.9,22.2,188.9,19.4z"/>
				<path class="st1" d="M210.3,22H206l-0.8,2H203l4.1-9.3h2.1l4.1,9.3H211L210.3,22z M209.6,20.4l-1.5-3.6l-1.5,3.6H209.6z"/>
			</g>
		</g>
		<g>
			<path class="st0" d="M97.4,36.4V37h-2.8v-3.7h2.7v0.6h-2v1h1.8v0.6h-1.8v1L97.4,36.4L97.4,36.4z"/>
			<path class="st0" d="M101.7,33.3V37h-0.6l-2-2.5V37h-0.7v-3.7H99l2,2.5v-2.5H101.7z"/>
			<path class="st0" d="M105.4,35.1h0.7v1.5c-0.4,0.3-0.9,0.5-1.5,0.5c-1.1,0-2-0.8-2-1.9c0-1.1,0.8-1.9,2-1.9
				c0.6,0,1.1,0.2,1.5,0.6l-0.4,0.4c-0.3-0.3-0.6-0.4-1-0.4c-0.8,0-1.3,0.5-1.3,1.3s0.6,1.3,1.3,1.3c0.3,0,0.5-0.1,0.8-0.2
				L105.4,35.1L105.4,35.1z"/>
			<path class="st0" d="M110,36.4V37h-2.8v-3.7h2.7v0.6h-2v1h1.8v0.6h-1.8v1L110,36.4L110,36.4z"/>
			<path class="st0" d="M114.3,33.3V37h-0.6l-2-2.5V37H111v-3.7h0.6l2,2.5v-2.5H114.3z"/>
			<path class="st0" d="M118.9,33.3V37h-0.7v-1.6h-1.9V37h-0.7v-3.7h0.7v1.5h1.9v-1.5H118.9z"/>
			<path class="st0" d="M122.5,36.1h-1.9l-0.4,0.9h-0.7l1.7-3.7h0.7l1.7,3.7h-0.7L122.5,36.1z M122.3,35.6l-0.7-1.6l-0.7,1.6H122.3z
				"/>
			<path class="st0" d="M126.7,37l-0.8-1.1h-0.1H125V37h-0.7v-3.7h1.5c1,0,1.6,0.5,1.6,1.3c0,0.6-0.3,1-0.8,1.2l0.9,1.2H126.7z
				 M125.8,33.9H125v1.5h0.8c0.6,0,0.9-0.3,0.9-0.7C126.7,34.1,126.4,33.9,125.8,33.9z"/>
			<path class="st0" d="M128.4,33.3h0.7V37h-0.7V33.3z"/>
			<path class="st0" d="M132.8,36.1h-1.9l-0.4,0.9h-0.7l1.7-3.7h0.7l1.7,3.7h-0.7L132.8,36.1z M132.5,35.6l-0.7-1.6l-0.7,1.6H132.5z
				"/>
			<path class="st0" d="M139.1,36.4V37h-2.8v-3.7h2.7v0.6h-2v1h1.8v0.6H137v1L139.1,36.4L139.1,36.4z"/>
			<path class="st0" d="M141.5,35.1c0-1.1,0.8-1.9,2-1.9c0.6,0,1.1,0.2,1.5,0.6l-0.4,0.4c-0.3-0.3-0.6-0.4-1-0.4
				c-0.8,0-1.3,0.5-1.3,1.3s0.6,1.3,1.3,1.3c0.4,0,0.7-0.1,1-0.4l0.4,0.4c-0.3,0.4-0.9,0.6-1.5,0.6
				C142.4,37.1,141.5,36.3,141.5,35.1z"/>
			<path class="st0" d="M145.5,35.1c0-1.1,0.8-1.9,2-1.9c1.1,0,2,0.8,2,1.9s-0.8,1.9-2,1.9C146.4,37.1,145.5,36.2,145.5,35.1z
				 M148.8,35.1c0-0.8-0.6-1.3-1.3-1.3s-1.3,0.5-1.3,1.3s0.6,1.3,1.3,1.3C148.3,36.5,148.8,35.9,148.8,35.1z"/>
			<path class="st0" d="M153.8,33.3V37h-0.6l-2-2.5V37h-0.7v-3.7h0.6l2,2.5v-2.5H153.8z"/>
			<path class="st0" d="M154.7,36.6l0.2-0.5c0.3,0.2,0.8,0.4,1.2,0.4c0.6,0,0.8-0.2,0.8-0.5c0-0.8-2.2-0.3-2.2-1.7
				c0-0.6,0.5-1.1,1.5-1.1c0.4,0,0.9,0.1,1.2,0.3l-0.2,0.5c-0.3-0.2-0.7-0.3-1-0.3c-0.6,0-0.8,0.2-0.8,0.5c0,0.8,2.2,0.3,2.2,1.6
				c0,0.6-0.5,1.1-1.5,1.1C155.6,37.1,155,36.9,154.7,36.6z"/>
			<path class="st0" d="M159.3,33.9h-1.2v-0.6h3.1v0.6H160V37h-0.7L159.3,33.9L159.3,33.9z"/>
			<path class="st0" d="M164.4,37l-0.8-1.1h-0.1h-0.8V37H162v-3.7h1.5c1,0,1.6,0.5,1.6,1.3c0,0.6-0.3,1-0.8,1.2l0.9,1.2H164.4z
				 M163.5,33.9h-0.8v1.5h0.8c0.6,0,0.9-0.3,0.9-0.7C164.4,34.1,164.1,33.9,163.5,33.9z"/>
			<path class="st0" d="M166.1,35.4v-2.1h0.7v2.1c0,0.8,0.3,1.1,0.9,1.1s0.9-0.3,0.9-1.1v-2.1h0.7v2.1c0,1.1-0.6,1.7-1.6,1.7
				C166.7,37.1,166.1,36.5,166.1,35.4z"/>
			<path class="st0" d="M173.3,36l0.4,0.4c-0.3,0.4-0.8,0.6-1.4,0.6l-0.1,0.2c0.3,0,0.5,0.2,0.5,0.4c0,0.3-0.3,0.5-0.7,0.5
				c-0.2,0-0.4,0-0.5-0.1l0.1-0.3c0.1,0.1,0.2,0.1,0.4,0.1s0.3-0.1,0.3-0.2c0-0.1-0.1-0.2-0.3-0.2h-0.2l0.1-0.5
				c-1-0.1-1.7-0.9-1.7-1.9c0-1.1,0.8-1.9,2-1.9c0.6,0,1.1,0.2,1.5,0.6l-0.4,0.4c-0.3-0.3-0.6-0.4-1-0.4c-0.8,0-1.3,0.5-1.3,1.3
				s0.6,1.3,1.3,1.3C172.7,36.5,173,36.3,173.3,36z"/>
			<path class="st0" d="M177,36.1h-1.9l-0.4,0.9H174l1.7-3.7h0.7l1.7,3.7h-0.7L177,36.1z M175.5,33h-0.4c0-0.4,0.2-0.7,0.6-0.7
				c0.3,0,0.5,0.3,0.7,0.3c0.1,0,0.2-0.1,0.3-0.3h0.4c0,0.4-0.2,0.7-0.6,0.7c-0.3,0-0.5-0.3-0.7-0.3C175.6,32.6,175.5,32.8,175.5,33
				z M176.7,35.6L176,34l-0.7,1.6H176.7z"/>
			<path class="st0" d="M178.5,35.1c0-1.1,0.8-1.9,2-1.9c1.1,0,2,0.8,2,1.9s-0.8,1.9-2,1.9C179.3,37.1,178.5,36.2,178.5,35.1z
				 M181.8,35.1c0-0.8-0.6-1.3-1.3-1.3s-1.3,0.5-1.3,1.3s0.6,1.3,1.3,1.3C181.2,36.5,181.8,35.9,181.8,35.1z"/>
		</g>
	</g>
	<g>
		<g>
			<path class="st1" d="M33.5,41.1c-11.2,0-20.4-9.1-20.4-20.4S22.3,0.4,33.5,0.4s20.4,9.1,20.4,20.4S44.7,41.1,33.5,41.1z
				 M33.5,2.3C23.3,2.3,15,10.6,15,20.8s8.3,18.5,18.5,18.5S52,31,52,20.8S43.7,2.3,33.5,2.3z"/>
		</g>
		<g>
			<path class="st0" d="M20.6,41.1C9.3,41.1,0.2,32,0.2,20.8S9.3,0.4,20.6,0.4S41,9.5,41,20.8S31.8,41.1,20.6,41.1z M20.6,2.3
				c-10.2,0-18.5,8.3-18.5,18.5s8.3,18.5,18.5,18.5S39.1,31,39.1,20.8S30.8,2.3,20.6,2.3z"/>
		</g>
		<g>
			<path class="st0" d="M33.4,17H20c-0.4,0-0.7-0.3-0.7-0.7l0,0c0-0.4,0.3-0.7,0.7-0.7h13.3c0.4,0,0.7,0.3,0.7,0.7l0,0
				C34,16.7,33.8,17,33.4,17z"/>
			<path class="st0" d="M33.4,21.4H20c-0.4,0-0.7-0.3-0.7-0.7l0,0c0-0.4,0.3-0.7,0.7-0.7h13.3c0.4,0,0.7,0.3,0.7,0.7l0,0
				C34,21.1,33.8,21.4,33.4,21.4z"/>
			<path class="st0" d="M33.4,25.8H20c-0.4,0-0.7-0.3-0.7-0.7l0,0c0-0.4,0.3-0.7,0.7-0.7h13.3c0.4,0,0.7,0.3,0.7,0.7l0,0
				C34,25.5,33.8,25.8,33.4,25.8z"/>
		</g>
	</g>
</g>
</svg>
